# xmcd
#
# Track frame offsets:
#	150
#	10768
#	22071
#	39711
#	49928
#	62501
#	82953
#	93162
#	104197
#	112641
#	128323
#	146917
#	158971
#	175173
#
# Disc length: 2512 seconds
#
# Revision: 0
# Processed by: cddbd v1.5.2PL0 Copyright (c) Steve Scherf et al.
# Submitted via: audiograbber 1.83.01
#
DISCID=af09ce0e
DTITLE=Various Artist - Guns and Cowboys
DYEAR=1900
DGENRE=Country
TTITLE0=Hank Snow - The Man Behind The Gun
TTITLE1=Eddy Arnold - Johnny Reb Thats Me
TTITLE2=Jimmy Driftwood - Battle of New Orleans
TTITLE3=Jim Reeves - Partners
TTITLE4=Jimmy Driftwood - Git Along Little Yearlings
TTITLE5=Sons Of the Pioneers - El Paso
TTITLE6=Jimmy Driftwood - Song Of The Cowboys
TTITLE7=Jimmy Driftwood - The Marshal of Silver City
TTITLE8=Jimmy Driftwood - First Covered Wagon
TTITLE9=Eddy Arnold - Jesse James
TTITLE10=Jimmy Driftwood - On Top Of Shiloh´s Hill
TTITLE11=Sons Of the Pioneers - Pecos Bill
TTITLE12=Jimmy Driftwood - He Had A Long Chanin On
TTITLE13=Eddy Arnold - Boot Hill
EXTD=
EXTT0=
EXTT1=
EXTT2=
EXTT3=
EXTT4=
EXTT5=
EXTT6=
EXTT7=
EXTT8=
EXTT9=
EXTT10=
EXTT11=
EXTT12=
EXTT13=
PLAYORDER=
